<?xml version="1.0" encoding="UTF-8" standalone="no" ?>
<!DOCTYPE svg PUBLIC "-//W3C//DTD SVG 1.1//EN" "http://www.w3.org/Graphics/SVG/1.1/DTD/svg11.dtd">
<svg xmlns="http://www.w3.org/2000/svg" xmlns:xlink="http://www.w3.org/1999/xlink" version="1.1" width="1080" height="1080" viewBox="0 0 1080 1080" xml:space="preserve">
<desc>Created with Fabric.js 5.2.4</desc>
<defs>
</defs>
<rect x="0" y="0" width="100%" height="100%" fill="transparent"></rect>
<g transform="matrix(1 0 0 1 540 540)" id="6a529844-7820-4c5c-b1c1-68833209818d"  >
<rect style="stroke: none; stroke-width: 1; stroke-dasharray: none; stroke-linecap: butt; stroke-dashoffset: 0; stroke-linejoin: miter; stroke-miterlimit: 4; fill: rgb(255,255,255); fill-rule: nonzero; opacity: 1; visibility: hidden;" vector-effect="non-scaling-stroke"  x="-540" y="-540" rx="0" ry="0" width="1080" height="1080" />
</g>
<g transform="matrix(1 0 0 1 540 540)" id="04f8288b-ffcf-43e3-85ed-aa71a418dcfd"  >
</g>
<g transform="matrix(7.16 0 0 7.16 540 540)"  >
<path style="stroke: rgb(0,0,0); stroke-width: 0; stroke-dasharray: none; stroke-linecap: butt; stroke-dashoffset: 0; stroke-linejoin: miter; stroke-miterlimit: 4; fill: rgb(1,246,250); fill-rule: nonzero; opacity: 1;" vector-effect="non-scaling-stroke"  transform=" translate(-48.06, -48.06)" d="M 72.089 0.02 L 59.624 0 C 45.62 0 36.57 9.285 36.57 23.656 L 36.57 34.563 L 24.037 34.563 C 22.954 34.563 22.076999999999998 35.441 22.076999999999998 36.524 L 22.076999999999998 52.327 C 22.076999999999998 53.41 22.955 54.287 24.037 54.287 L 36.57 54.287 L 36.57 94.163 C 36.57 95.246 37.447 96.12299999999999 38.53 96.12299999999999 L 54.882000000000005 96.12299999999999 C 55.965 96.12299999999999 56.842000000000006 95.24499999999999 56.842000000000006 94.163 L 56.842000000000006 54.287 L 71.49600000000001 54.287 C 72.57900000000001 54.287 73.456 53.41 73.456 52.327 L 73.462 36.524 C 73.462 36.004 73.25500000000001 35.506 72.888 35.138 C 72.521 34.769999999999996 72.021 34.562999999999995 71.501 34.562999999999995 L 56.842 34.562999999999995 L 56.842 25.316999999999993 C 56.842 20.872999999999994 57.900999999999996 18.616999999999994 63.69 18.616999999999994 L 72.087 18.613999999999994 C 73.169 18.613999999999994 74.046 17.735999999999994 74.046 16.653999999999993 L 74.046 1.98 C 74.046 0.899 73.17 0.022 72.089 0.02 z" stroke-linecap="round" />
</g>
<g transform="matrix(NaN NaN NaN NaN 0 0)"  >
<g style=""   >
</g>
</g>
</svg>