<?xml version="1.0" encoding="UTF-8" standalone="no" ?>
<!DOCTYPE svg PUBLIC "-//W3C//DTD SVG 1.1//EN" "http://www.w3.org/Graphics/SVG/1.1/DTD/svg11.dtd">
<svg xmlns="http://www.w3.org/2000/svg" xmlns:xlink="http://www.w3.org/1999/xlink" version="1.1" width="1080" height="1080" viewBox="0 0 1080 1080" xml:space="preserve">
<desc>Created with Fabric.js 5.2.4</desc>
<defs>
</defs>
<rect x="0" y="0" width="100%" height="100%" fill="transparent"></rect>
<g transform="matrix(1 0 0 1 540 540)" id="6a529844-7820-4c5c-b1c1-68833209818d"  >
<rect style="stroke: none; stroke-width: 1; stroke-dasharray: none; stroke-linecap: butt; stroke-dashoffset: 0; stroke-linejoin: miter; stroke-miterlimit: 4; fill: rgb(255,255,255); fill-rule: nonzero; opacity: 1; visibility: hidden;" vector-effect="non-scaling-stroke"  x="-540" y="-540" rx="0" ry="0" width="1080" height="1080" />
</g>
<g transform="matrix(1 0 0 1 540 540)" id="04f8288b-ffcf-43e3-85ed-aa71a418dcfd"  >
</g>
<g transform="matrix(NaN NaN NaN NaN 0 0)"  >
<g style=""   >
</g>
</g>
<g transform="matrix(NaN NaN NaN NaN 0 0)"  >
<g style=""   >
</g>
</g>
<g transform="matrix(1.63 0 0 1.63 511.01 540)" id="12595aab-87ad-4136-a709-e5234565180d"  >
<path style="stroke: rgb(0,0,0); stroke-width: 0; stroke-dasharray: none; stroke-linecap: butt; stroke-dashoffset: 0; stroke-linejoin: miter; stroke-miterlimit: 4; fill: rgb(1,246,250); fill-rule: nonzero; opacity: 1;" vector-effect="non-scaling-stroke"  transform=" translate(-256, -256)" d="M 512 97.248 C 492.96 105.60000000000001 472.672 111.13600000000001 451.52 113.82400000000001 C 473.28 100.83200000000001 489.888 80.41600000000001 497.69599999999997 55.808000000000014 C 477.40799999999996 67.90400000000001 455.008 76.44800000000001 431.13599999999997 81.21600000000001 C 411.872 60.704 384.416 48 354.464 48 C 296.352 48 249.56799999999998 95.168 249.56799999999998 152.99200000000002 C 249.56799999999998 161.312 250.272 169.312 251.99999999999997 176.92800000000003 C 164.736 172.67200000000003 87.51999999999998 130.848 35.64799999999997 67.13600000000002 C 26.59199999999997 82.84800000000003 21.279999999999966 100.83200000000002 21.279999999999966 120.19200000000002 C 21.279999999999966 156.544 39.999999999999964 188.76800000000003 67.90399999999997 207.42400000000004 C 51.039999999999964 207.10400000000004 34.49599999999997 202.20800000000003 20.47999999999997 194.49600000000004 C 20.47999999999997 194.81600000000003 20.47999999999997 195.23200000000003 20.47999999999997 195.64800000000002 C 20.47999999999997 246.65600000000003 56.86399999999997 289.024 104.57599999999996 298.784 C 96.03199999999997 301.12 86.71999999999997 302.24 77.05599999999997 302.24 C 70.33599999999997 302.24 63.55199999999997 301.856 57.18399999999997 300.44800000000004 C 70.78399999999996 342.016 109.37599999999998 372.576 155.26399999999995 373.56800000000004 C 119.55199999999995 401.504 74.20799999999996 418.336 25.119999999999948 418.336 C 16.511999999999947 418.336 8.255999999999947 417.952 -5.3290705182007514e-14 416.896 C 46.496 446.88 101.6 464 161.024 464 C 354.176 464 459.776 304 459.776 165.312 C 459.776 160.67200000000003 459.616 156.192 459.392 151.744 C 480.224 136.96 497.728 118.496 512 97.248 z" stroke-linecap="round" />
</g>
<g transform="matrix(NaN NaN NaN NaN 0 0)"  >
<g style=""   >
</g>
</g>
</svg>